# xmcd
#
# Track frame offsets: 
#        150
#        8524
#        16457
#        23317
#        33791
#        54240
#        67843
#        77624
#        94152
#        113223
#        118272
#        132512
#        148053
#        159002
#        181903
#        191698
#
# Disc length: 2597 seconds
#
# Revision: 0
# Processed by: cddbd v1.5.2PL0 Copyright (c) Steve Scherf et al.
# Submitted via: ExactAudioCopy v1.3
#
DISCID=bc0a2310
DTITLE=Barrelhouse Chuck - 25 Years Of Chicago Blues Piano Vol. 2
DYEAR=2006
DGENRE=BLues
TTITLE0=Betsy's Boogie
TTITLE1=Leroy Carr's Hop
TTITLE2=Nutty Boogie
TTITLE3=Blues For Little Brother Montgomery
TTITLE4=Hangin' Round The House
TTITLE5=Walkin The Ceiling
TTITLE6=Walk Don't Run 69
TTITLE7=On The House
TTITLE8=Blues For Pinetop Perkins
TTITLE9=Farfisa B3 Boogie For Steve Winwood
TTITLE10=Past Life Blues
TTITLE11=Salute To Sunnyland Slim
TTITLE12=Kingpin
TTITLE13=Wah-Wah-Blues (Part 1)
TTITLE14=Viola's Stomp
TTITLE15=Gigolo
EXTD=
EXTT0=
EXTT1=
EXTT2=
EXTT3=
EXTT4=
EXTT5=
EXTT6=
EXTT7=
EXTT8=
EXTT9=
EXTT10=
EXTT11=
EXTT12=
EXTT13=
EXTT14=
EXTT15=
PLAYORDER=
